<svg xmlns="http://www.w3.org/2000/svg" viewBox="0 0 900 311" width="900" height="311" role="img" aria-labelledby="t d" font-family='-apple-system,BlinkMacSystemFont,"Segoe UI",Roboto,Helvetica,Arial,sans-serif'><title id="t">Installed skills versus skills ever invoked</title><desc id="d">92 skills installed; 15 invoked at least once across 148 sessions; 77 never invoked.</desc><rect width="900" height="311" fill="#1a1a19" rx="10"/><text x="34.0" y="34.0" font-family='-apple-system,BlinkMacSystemFont,"Segoe UI",Roboto,Helvetica,Arial,sans-serif' font-size="17" font-weight="650" fill="#ffffff" text-anchor="start">Installed skills against skills ever invoked</text><text x="34.0" y="55.0" font-family='-apple-system,BlinkMacSystemFont,"Segoe UI",Roboto,Helvetica,Arial,sans-serif' font-size="12.5" font-weight="400" fill="#c3c2b7" text-anchor="start">One square is one skill. 148 sessions of transcripts, 16 days.</text><rect x="34.0" y="78.0" width="26.0" height="26.0" rx="4" fill="#3987e5"/><rect x="65.0" y="78.0" width="26.0" height="26.0" rx="4" fill="#3987e5"/><rect x="96.0" y="78.0" width="26.0" height="26.0" rx="4" fill="#3987e5"/><rect x="127.0" y="78.0" width="26.0" height="26.0" rx="4" fill="#3987e5"/><rect x="158.0" y="78.0" width="26.0" height="26.0" rx="4" fill="#3987e5"/><rect x="189.0" y="78.0" width="26.0" height="26.0" rx="4" fill="#3987e5"/><rect x="220.0" y="78.0" width="26.0" height="26.0" rx="4" fill="#3987e5"/><rect x="251.0" y="78.0" width="26.0" height="26.0" rx="4" fill="#3987e5"/><rect x="282.0" y="78.0" width="26.0" height="26.0" rx="4" fill="#3987e5"/><rect x="313.0" y="78.0" width="26.0" height="26.0" rx="4" fill="#3987e5"/><rect x="344.0" y="78.0" width="26.0" height="26.0" rx="4" fill="#3987e5"/><rect x="375.0" y="78.0" width="26.0" height="26.0" rx="4" fill="#3987e5"/><rect x="406.0" y="78.0" width="26.0" height="26.0" rx="4" fill="#3987e5"/><rect x="437.0" y="78.0" width="26.0" height="26.0" rx="4" fill="#3987e5"/><rect x="468.0" y="78.0" width="26.0" height="26.0" rx="4" fill="#3987e5"/><rect x="499.0" y="78.0" width="26.0" height="26.0" rx="4" fill="#ec835a" opacity="0.9"/><rect x="530.0" y="78.0" width="26.0" height="26.0" rx="4" fill="#ec835a" opacity="0.9"/><rect x="561.0" y="78.0" width="26.0" height="26.0" rx="4" fill="#ec835a" opacity="0.9"/><rect x="592.0" y="78.0" width="26.0" height="26.0" rx="4" fill="#ec835a" opacity="0.9"/><rect x="623.0" y="78.0" width="26.0" height="26.0" rx="4" fill="#ec835a" opacity="0.9"/><rect x="654.0" y="78.0" width="26.0" height="26.0" rx="4" fill="#ec835a" opacity="0.9"/><rect x="685.0" y="78.0" width="26.0" height="26.0" rx="4" fill="#ec835a" opacity="0.9"/><rect x="716.0" y="78.0" width="26.0" height="26.0" rx="4" fill="#ec835a" opacity="0.9"/><rect x="34.0" y="109.0" width="26.0" height="26.0" rx="4" fill="#ec835a" opacity="0.9"/><rect x="65.0" y="109.0" width="26.0" height="26.0" rx="4" fill="#ec835a" opacity="0.9"/><rect x="96.0" y="109.0" width="26.0" height="26.0" rx="4" fill="#ec835a" opacity="0.9"/><rect x="127.0" y="109.0" width="26.0" height="26.0" rx="4" fill="#ec835a" opacity="0.9"/><rect x="158.0" y="109.0" width="26.0" height="26.0" rx="4" fill="#ec835a" opacity="0.9"/><rect x="189.0" y="109.0" width="26.0" height="26.0" rx="4" fill="#ec835a" opacity="0.9"/><rect x="220.0" y="109.0" width="26.0" height="26.0" rx="4" fill="#ec835a" opacity="0.9"/><rect x="251.0" y="109.0" width="26.0" height="26.0" rx="4" fill="#ec835a" opacity="0.9"/><rect x="282.0" y="109.0" width="26.0" height="26.0" rx="4" fill="#ec835a" opacity="0.9"/><rect x="313.0" y="109.0" width="26.0" height="26.0" rx="4" fill="#ec835a" opacity="0.9"/><rect x="344.0" y="109.0" width="26.0" height="26.0" rx="4" fill="#ec835a" opacity="0.9"/><rect x="375.0" y="109.0" width="26.0" height="26.0" rx="4" fill="#ec835a" opacity="0.9"/><rect x="406.0" y="109.0" width="26.0" height="26.0" rx="4" fill="#ec835a" opacity="0.9"/><rect x="437.0" y="109.0" width="26.0" height="26.0" rx="4" fill="#ec835a" opacity="0.9"/><rect x="468.0" y="109.0" width="26.0" height="26.0" rx="4" fill="#ec835a" opacity="0.9"/><rect x="499.0" y="109.0" width="26.0" height="26.0" rx="4" fill="#ec835a" opacity="0.9"/><rect x="530.0" y="109.0" width="26.0" height="26.0" rx="4" fill="#ec835a" opacity="0.9"/><rect x="561.0" y="109.0" width="26.0" height="26.0" rx="4" fill="#ec835a" opacity="0.9"/><rect x="592.0" y="109.0" width="26.0" height="26.0" rx="4" fill="#ec835a" opacity="0.9"/><rect x="623.0" y="109.0" width="26.0" height="26.0" rx="4" fill="#ec835a" opacity="0.9"/><rect x="654.0" y="109.0" width="26.0" height="26.0" rx="4" fill="#ec835a" opacity="0.9"/><rect x="685.0" y="109.0" width="26.0" height="26.0" rx="4" fill="#ec835a" opacity="0.9"/><rect x="716.0" y="109.0" width="26.0" height="26.0" rx="4" fill="#ec835a" opacity="0.9"/><rect x="34.0" y="140.0" width="26.0" height="26.0" rx="4" fill="#ec835a" opacity="0.9"/><rect x="65.0" y="140.0" width="26.0" height="26.0" rx="4" fill="#ec835a" opacity="0.9"/><rect x="96.0" y="140.0" width="26.0" height="26.0" rx="4" fill="#ec835a" opacity="0.9"/><rect x="127.0" y="140.0" width="26.0" height="26.0" rx="4" fill="#ec835a" opacity="0.9"/><rect x="158.0" y="140.0" width="26.0" height="26.0" rx="4" fill="#ec835a" opacity="0.9"/><rect x="189.0" y="140.0" width="26.0" height="26.0" rx="4" fill="#ec835a" opacity="0.9"/><rect x="220.0" y="140.0" width="26.0" height="26.0" rx="4" fill="#ec835a" opacity="0.9"/><rect x="251.0" y="140.0" width="26.0" height="26.0" rx="4" fill="#ec835a" opacity="0.9"/><rect x="282.0" y="140.0" width="26.0" height="26.0" rx="4" fill="#ec835a" opacity="0.9"/><rect x="313.0" y="140.0" width="26.0" height="26.0" rx="4" fill="#ec835a" opacity="0.9"/><rect x="344.0" y="140.0" width="26.0" height="26.0" rx="4" fill="#ec835a" opacity="0.9"/><rect x="375.0" y="140.0" width="26.0" height="26.0" rx="4" fill="#ec835a" opacity="0.9"/><rect x="406.0" y="140.0" width="26.0" height="26.0" rx="4" fill="#ec835a" opacity="0.9"/><rect x="437.0" y="140.0" width="26.0" height="26.0" rx="4" fill="#ec835a" opacity="0.9"/><rect x="468.0" y="140.0" width="26.0" height="26.0" rx="4" fill="#ec835a" opacity="0.9"/><rect x="499.0" y="140.0" width="26.0" height="26.0" rx="4" fill="#ec835a" opacity="0.9"/><rect x="530.0" y="140.0" width="26.0" height="26.0" rx="4" fill="#ec835a" opacity="0.9"/><rect x="561.0" y="140.0" width="26.0" height="26.0" rx="4" fill="#ec835a" opacity="0.9"/><rect x="592.0" y="140.0" width="26.0" height="26.0" rx="4" fill="#ec835a" opacity="0.9"/><rect x="623.0" y="140.0" width="26.0" height="26.0" rx="4" fill="#ec835a" opacity="0.9"/><rect x="654.0" y="140.0" width="26.0" height="26.0" rx="4" fill="#ec835a" opacity="0.9"/><rect x="685.0" y="140.0" width="26.0" height="26.0" rx="4" fill="#ec835a" opacity="0.9"/><rect x="716.0" y="140.0" width="26.0" height="26.0" rx="4" fill="#ec835a" opacity="0.9"/><rect x="34.0" y="171.0" width="26.0" height="26.0" rx="4" fill="#ec835a" opacity="0.9"/><rect x="65.0" y="171.0" width="26.0" height="26.0" rx="4" fill="#ec835a" opacity="0.9"/><rect x="96.0" y="171.0" width="26.0" height="26.0" rx="4" fill="#ec835a" opacity="0.9"/><rect x="127.0" y="171.0" width="26.0" height="26.0" rx="4" fill="#ec835a" opacity="0.9"/><rect x="158.0" y="171.0" width="26.0" height="26.0" rx="4" fill="#ec835a" opacity="0.9"/><rect x="189.0" y="171.0" width="26.0" height="26.0" rx="4" fill="#ec835a" opacity="0.9"/><rect x="220.0" y="171.0" width="26.0" height="26.0" rx="4" fill="#ec835a" opacity="0.9"/><rect x="251.0" y="171.0" width="26.0" height="26.0" rx="4" fill="#ec835a" opacity="0.9"/><rect x="282.0" y="171.0" width="26.0" height="26.0" rx="4" fill="#ec835a" opacity="0.9"/><rect x="313.0" y="171.0" width="26.0" height="26.0" rx="4" fill="#ec835a" opacity="0.9"/><rect x="344.0" y="171.0" width="26.0" height="26.0" rx="4" fill="#ec835a" opacity="0.9"/><rect x="375.0" y="171.0" width="26.0" height="26.0" rx="4" fill="#ec835a" opacity="0.9"/><rect x="406.0" y="171.0" width="26.0" height="26.0" rx="4" fill="#ec835a" opacity="0.9"/><rect x="437.0" y="171.0" width="26.0" height="26.0" rx="4" fill="#ec835a" opacity="0.9"/><rect x="468.0" y="171.0" width="26.0" height="26.0" rx="4" fill="#ec835a" opacity="0.9"/><rect x="499.0" y="171.0" width="26.0" height="26.0" rx="4" fill="#ec835a" opacity="0.9"/><rect x="530.0" y="171.0" width="26.0" height="26.0" rx="4" fill="#ec835a" opacity="0.9"/><rect x="561.0" y="171.0" width="26.0" height="26.0" rx="4" fill="#ec835a" opacity="0.9"/><rect x="592.0" y="171.0" width="26.0" height="26.0" rx="4" fill="#ec835a" opacity="0.9"/><rect x="623.0" y="171.0" width="26.0" height="26.0" rx="4" fill="#ec835a" opacity="0.9"/><rect x="654.0" y="171.0" width="26.0" height="26.0" rx="4" fill="#ec835a" opacity="0.9"/><rect x="685.0" y="171.0" width="26.0" height="26.0" rx="4" fill="#ec835a" opacity="0.9"/><rect x="716.0" y="171.0" width="26.0" height="26.0" rx="4" fill="#ec835a" opacity="0.9"/><rect x="34.0" y="219.0" width="11.0" height="11.0" rx="2.5" fill="#3987e5"/><text x="52.0" y="229.0" font-family='-apple-system,BlinkMacSystemFont,"Segoe UI",Roboto,Helvetica,Arial,sans-serif' font-size="12.5" font-weight="400" fill="#ffffff" text-anchor="start">invoked at least once — 15</text><rect x="302.0" y="219.0" width="11.0" height="11.0" rx="2.5" fill="#ec835a"/><text x="320.0" y="229.0" font-family='-apple-system,BlinkMacSystemFont,"Segoe UI",Roboto,Helvetica,Arial,sans-serif' font-size="12.5" font-weight="400" fill="#ffffff" text-anchor="start">never invoked — 77</text><text x="866.0" y="229.0" font-family='ui-monospace,SFMono-Regular,"SF Mono",Menlo,Consolas,monospace' font-size="26" font-weight="700" fill="#ffffff" text-anchor="end">77/92</text><text x="34.0" y="255.0" font-family='-apple-system,BlinkMacSystemFont,"Segoe UI",Roboto,Helvetica,Arial,sans-serif' font-size="12" font-weight="400" fill="#c3c2b7" text-anchor="start">Reported as something to review, not to delete: a rarely-used skill can be the one that matters when it fires.</text></svg>